<svg width="512" height="512" viewBox="0 0 512 512" fill="none" xmlns="http://www.w3.org/2000/svg">
<g clip-path="url(#clip0_3_10)">
<path d="M499.627 271.787C489.387 284.245 440.32 300.373 392.533 307.2V469.333C392.533 488.192 347.477 503.467 260.267 503.467C173.056 503.467 119.467 488.192 119.467 469.333V308.224C65.8773 302.677 23.2106 284.928 12.3733 271.787C10.1344 269.079 8.79897 265.74 8.55412 262.235C8.30927 258.731 9.16731 255.237 11.0079 252.245L80.0426 138.581C82.0736 135.176 85.248 132.608 89.0026 131.328L168.96 102.912C170.072 102.478 171.261 102.279 172.453 102.326C173.645 102.374 174.815 102.667 175.889 103.188C176.962 103.709 177.917 104.446 178.692 105.353C179.468 106.26 180.047 107.317 180.395 108.459C186.88 132.352 217.856 150.443 256 150.443C294.144 150.443 325.12 132.352 331.605 108.459C331.817 107.572 332.194 106.732 332.715 105.984C366.933 129.451 366.933 179.2 366.933 179.2C367.474 157.424 374.616 136.326 387.413 118.699L422.997 131.328C426.752 132.608 429.926 135.176 431.957 138.581L500.992 252.245C504.764 258.381 504.218 266.24 499.627 271.787Z" fill="#E8EDFC"/>
<path d="M341.333 179.2C341.897 162.133 346.266 145.416 354.133 130.27C349.009 120.598 341.67 112.276 332.715 105.984C332.194 106.732 331.817 107.572 331.605 108.459C330.086 113.778 327.512 118.738 324.036 123.042C334.763 139.858 340.739 159.263 341.333 179.2ZM154.795 108.459C161.28 132.352 192.256 150.443 230.4 150.443C234.675 150.443 238.95 150.195 243.2 149.717C211.089 146.193 186.138 129.613 180.395 108.459C180.047 107.317 179.468 106.26 178.692 105.353C177.917 104.446 176.962 103.709 175.889 103.188C174.815 102.667 173.646 102.374 172.453 102.326C171.261 102.279 170.072 102.478 168.96 102.912L154.564 108.032C154.624 108.186 154.752 108.288 154.795 108.459ZM500.992 252.245L431.957 138.581C429.925 135.178 426.749 132.608 422.997 131.328L387.413 118.699C385.562 121.014 383.853 123.439 382.293 125.96L397.414 131.328C401.169 132.608 404.343 135.176 406.374 138.581L475.409 252.245C479.181 258.381 478.635 266.24 474.044 271.787C463.787 284.245 414.72 300.373 366.933 307.2V469.333C366.933 487.253 326.221 501.897 247.467 503.322C251.682 503.398 255.923 503.467 260.267 503.467C347.477 503.467 392.533 488.192 392.533 469.333V307.2C440.32 300.373 489.387 284.245 499.627 271.787C504.218 266.24 504.764 258.381 500.992 252.245Z" fill="#CAD9FC"/>
<path d="M221.867 247.467C281.6 247.467 281.6 315.733 281.6 315.733C281.6 315.733 281.6 247.467 341.333 247.467C281.6 247.467 281.6 179.2 281.6 179.2C281.6 179.2 281.6 247.467 221.867 247.467ZM443.733 93.8668C433.057 93.3067 422.398 95.262 412.616 99.5752C402.833 103.888 394.201 110.439 387.413 118.699C374.616 136.326 367.474 157.424 366.933 179.2C366.933 179.2 366.933 129.451 332.715 105.984C320.127 97.6145 305.242 93.3788 290.133 93.8668C366.933 93.8668 366.933 8.53345 366.933 8.53345C366.933 8.53345 366.933 93.8668 443.733 93.8668ZM80.0426 138.581L11.0079 252.245C9.16731 255.238 8.30927 258.731 8.55412 262.235C8.79897 265.74 10.1344 269.08 12.3733 271.787C23.2106 284.928 65.8773 302.677 119.467 308.224V469.333C119.467 487.253 167.868 501.897 247.467 503.322C251.682 503.399 255.923 503.467 260.267 503.467C264.61 503.467 268.851 503.399 273.067 503.322C193.468 501.897 145.067 487.253 145.067 469.333V308.224C91.4773 302.677 48.8106 284.928 37.9733 271.787C35.7344 269.08 34.399 265.74 34.1541 262.235C33.9093 258.731 34.7673 255.238 36.608 252.245L105.643 138.581C107.674 135.177 110.848 132.608 114.603 131.328L180.164 108.024C179.773 106.946 179.171 105.956 178.394 105.113C177.616 104.271 176.679 103.591 175.636 103.114C174.593 102.638 173.465 102.374 172.319 102.338C171.173 102.301 170.031 102.494 168.96 102.904L89.0026 131.32C85.2494 132.601 82.0738 135.175 80.0426 138.581Z" fill="white"/>
<path d="M3.78027 247.791L39.2107 189.423L53.8027 198.28L18.3723 256.648L3.78027 247.791Z" fill="white"/>
<path d="M29.0134 231.603C26.7502 231.615 24.5752 230.726 22.9669 229.134C21.3586 227.542 20.4487 225.376 20.4374 223.113C20.426 220.849 21.3142 218.674 22.9065 217.066C24.4989 215.458 26.6648 214.548 28.928 214.537H29.0134C31.2765 214.537 33.447 215.436 35.0473 217.036C36.6477 218.636 37.5467 220.807 37.5467 223.07C37.5467 225.333 36.6477 227.504 35.0473 229.104C33.447 230.704 31.2765 231.603 29.0134 231.603Z" fill="#428DFF"/>
<path d="M87.3557 142.976C88.3798 141.269 89.9755 139.989 91.8613 139.375L172.16 110.694C179.84 139.119 214.349 158.976 256 158.976C293.086 158.976 324.429 143.215 336.102 119.979C357.88 141.986 358.4 177.075 358.4 179.2C358.369 181.463 359.239 183.646 360.818 185.268C362.397 186.89 364.555 187.818 366.818 187.849C369.081 187.879 371.264 187.009 372.886 185.431C374.508 183.852 375.436 181.694 375.467 179.43V179.2C375.875 161.377 381.059 143.99 390.477 128.853L420.241 139.418C422.098 140.055 423.667 141.331 424.67 143.019L493.713 256.708C494.625 258.189 495.049 259.918 494.927 261.652C494.804 263.387 494.141 265.039 493.03 266.377C486.528 274.295 449.152 289.212 401.067 297.25V256C401.067 253.737 400.168 251.566 398.567 249.966C396.967 248.366 394.797 247.467 392.533 247.467C390.27 247.467 388.1 248.366 386.499 249.966C384.899 251.566 384 253.737 384 256V469.333C384 477.355 352.845 494.933 260.267 494.933C160.563 494.933 128 475.896 128 469.333V256C128 253.737 127.101 251.566 125.501 249.966C123.9 248.366 121.73 247.467 119.467 247.467C117.204 247.467 115.033 248.366 113.433 249.966C111.832 251.566 110.933 253.737 110.933 256V298.615C62.9333 292.198 27.0848 276.216 18.9355 266.334C17.8364 264.996 17.183 263.348 17.0667 261.621C16.9504 259.893 17.3771 258.173 18.2869 256.7C18.8992 255.743 19.3144 254.675 19.5082 253.556C19.7021 252.437 19.6707 251.291 19.4159 250.184C19.1611 249.078 18.6881 248.033 18.0245 247.112C17.3609 246.19 16.52 245.411 15.5513 244.818C14.5825 244.226 13.5052 243.833 12.3827 243.662C11.2601 243.492 10.1147 243.547 9.0137 243.825C7.91268 244.102 6.87814 244.597 5.9707 245.279C5.06326 245.962 4.30117 246.819 3.72908 247.799C0.960666 252.305 -0.32873 257.563 0.0415949 262.838C0.41192 268.113 2.42341 273.14 5.79414 277.214C19.3621 293.675 63.7184 309.76 110.933 315.81V469.333C110.933 500.796 188.075 512 260.267 512C349.747 512 401.067 496.452 401.067 469.333V314.513C444.51 307.473 493.875 292.224 506.189 277.239C509.564 273.167 511.581 268.14 511.956 262.864C512.331 257.587 511.045 252.326 508.279 247.817L439.279 134.195C436.216 129.086 431.447 125.224 425.813 123.29L403.115 115.2C414.784 106.397 429.126 101.878 443.733 102.4C445.997 102.4 448.167 101.501 449.767 99.9007C451.368 98.3003 452.267 96.1299 452.267 93.8667C452.267 91.6035 451.368 89.433 449.767 87.8327C448.167 86.2324 445.997 85.3333 443.733 85.3333C376.508 85.3333 375.467 11.6565 375.467 8.53334C375.497 6.27016 374.627 4.08754 373.049 2.46563C371.47 0.843711 369.312 -0.0846353 367.049 -0.115188C364.785 -0.145741 362.603 0.724002 360.981 2.30271C359.359 3.88141 358.431 6.03976 358.4 8.30295V8.53334C358.4 11.6736 357.623 85.3333 290.133 85.3333C287.87 85.3333 285.7 86.2324 284.099 87.8327C282.499 89.433 281.6 91.6035 281.6 93.8667C281.6 96.1299 282.499 98.3003 284.099 99.9007C285.7 101.501 287.87 102.4 290.133 102.4C301.249 102.159 312.253 104.665 322.168 109.696C314.488 128.555 287.522 141.909 256 141.909C222.575 141.909 194.244 126.899 188.646 106.291C188.063 104.056 187.014 101.968 185.568 100.165C184.123 98.3626 182.314 96.8851 180.258 95.8293C178.093 94.698 175.717 94.0289 173.28 93.8644C170.843 93.6999 168.399 94.0435 166.101 94.8736L86.2464 123.247C80.6144 125.184 75.8357 129.05 72.7552 134.153L39.1509 189.44C38.0229 191.375 37.6994 193.676 38.2501 195.848C38.8008 198.019 40.1817 199.888 42.0958 201.051C44.0099 202.215 46.3042 202.582 48.4855 202.071C50.6668 201.561 52.5607 200.215 53.76 198.323L87.3557 143.01V142.976ZM366.933 136.823C359.939 118.363 346.449 103.089 328.994 93.8667C346.449 84.6448 359.939 69.3706 366.933 50.9099C373.928 69.3706 387.418 84.6448 404.873 93.8667C387.418 103.089 373.928 118.363 366.933 136.823Z" fill="#428DFF"/>
<path d="M290.133 179.2V179.149C290.13 178.028 289.906 176.919 289.474 175.885C289.042 174.851 288.411 173.912 287.616 173.122C286.821 172.332 285.879 171.707 284.842 171.281C283.805 170.855 282.695 170.638 281.574 170.641C280.454 170.645 279.345 170.869 278.311 171.301C277.277 171.732 276.338 172.364 275.548 173.159C274.758 173.953 274.132 174.896 273.706 175.933C273.281 176.969 273.063 178.079 273.067 179.2C273.067 181.641 272.213 238.933 221.867 238.933C219.604 238.933 217.433 239.832 215.833 241.433C214.232 243.033 213.333 245.204 213.333 247.467C213.333 249.73 214.232 251.9 215.833 253.501C217.433 255.101 219.604 256 221.867 256C272.213 256 273.067 313.31 273.067 315.733V315.785C273.074 318.048 273.979 320.216 275.584 321.811C277.189 323.407 279.362 324.299 281.626 324.292C283.889 324.286 286.057 323.38 287.652 321.775C289.248 320.17 290.14 317.997 290.133 315.733C290.133 313.293 290.987 256 341.333 256C343.597 256 345.767 255.101 347.367 253.501C348.968 251.9 349.867 249.73 349.867 247.467C349.867 245.204 348.968 243.033 347.367 241.433C345.767 239.832 343.597 238.933 341.333 238.933C290.987 238.933 290.133 181.624 290.133 179.2ZM307.422 247.467C295.97 254.453 286.952 264.802 281.6 277.103C276.248 264.802 267.23 254.453 255.778 247.467C267.23 240.481 276.248 230.131 281.6 217.83C286.952 230.131 295.97 240.481 307.422 247.467ZM332.8 332.8C332.8 330.537 331.901 328.366 330.301 326.766C328.7 325.166 326.53 324.267 324.267 324.267C322.004 324.267 319.833 325.166 318.233 326.766C316.632 328.366 315.733 330.537 315.733 332.8V349.867C315.733 352.13 316.632 354.3 318.233 355.901C319.833 357.501 322.004 358.4 324.267 358.4C326.53 358.4 328.7 357.501 330.301 355.901C331.901 354.3 332.8 352.13 332.8 349.867V332.8ZM324.267 409.6C326.53 409.6 328.7 408.701 330.301 407.101C331.901 405.5 332.8 403.33 332.8 401.067V384C332.8 381.737 331.901 379.566 330.301 377.966C328.7 376.366 326.53 375.467 324.267 375.467C322.004 375.467 319.833 376.366 318.233 377.966C316.632 379.566 315.733 381.737 315.733 384V401.067C315.733 403.33 316.632 405.5 318.233 407.101C319.833 408.701 322.004 409.6 324.267 409.6ZM341.333 375.467H358.4C360.663 375.467 362.834 374.568 364.434 372.967C366.034 371.367 366.933 369.197 366.933 366.933C366.933 364.67 366.034 362.5 364.434 360.899C362.834 359.299 360.663 358.4 358.4 358.4H341.333C339.07 358.4 336.9 359.299 335.299 360.899C333.699 362.5 332.8 364.67 332.8 366.933C332.8 369.197 333.699 371.367 335.299 372.967C336.9 374.568 339.07 375.467 341.333 375.467ZM307.2 358.4H290.133C287.87 358.4 285.7 359.299 284.099 360.899C282.499 362.5 281.6 364.67 281.6 366.933C281.6 369.197 282.499 371.367 284.099 372.967C285.7 374.568 287.87 375.467 290.133 375.467H307.2C309.463 375.467 311.634 374.568 313.234 372.967C314.834 371.367 315.733 369.197 315.733 366.933C315.733 364.67 314.834 362.5 313.234 360.899C311.634 359.299 309.463 358.4 307.2 358.4Z" fill="#428DFF"/>
</g>
<defs>
<clipPath id="clip0_3_10">
<rect width="512" height="512" fill="white"/>
</clipPath>
</defs>
</svg>
